<svg id="CONTENT" xmlns="http://www.w3.org/2000/svg" viewBox="0 0 589.73 165.15"><defs><style>.cls-1{fill:#3cb7ae;}.cls-2{fill:#1d1e1c;}</style></defs><title>Optis-logo-01</title><path class="cls-1" d="M142,39.61,82.07,5c4.79,4.7,7.57,11.52,7.57,20.76a130.19,130.19,0,0,1-1.77,18.4A131.64,131.64,0,0,0,86.1,62.76c0,7.76,18,21.68,18,21.68s-18,15.56-18,22.43a122.74,122.74,0,0,0,1.77,17.95A127,127,0,0,1,89.64,143c0,6.58-1.21,11.9-3.38,16.15L142,127a7.4,7.4,0,0,0,3.69-6.4l0-74.57A7.39,7.39,0,0,0,142,39.61Z"/><path class="cls-2" d="M74.35,141.88c0-5.32-.89-10.41-1.55-15.95A100.27,100.27,0,0,1,71,109.08c0-14.18,6.21-21.72,16-24.15v-.45c-9.75-2.66-16-9.75-16-23.93A102.79,102.79,0,0,1,72.8,43.7c.66-5.31,1.55-10.63,1.55-15.73,0-11.42-4.24-18.19-15.79-19l-53,30.62A7.39,7.39,0,0,0,1.83,46v74.54a7.39,7.39,0,0,0,3.7,6.4l57.7,33.31C70.94,158.05,74.35,151.81,74.35,141.88Z"/><path class="cls-2" d="M240.68,128.1a46.55,46.55,0,1,1,46.55-46.54A46.6,46.6,0,0,1,240.68,128.1Zm0-72.4a25.86,25.86,0,1,0,25.86,25.86A25.89,25.89,0,0,0,240.68,55.7Z"/><path class="cls-2" d="M323.43,128.1H302.74V35h33.14a44.5,44.5,0,0,1,44.44,44.44,28,28,0,0,1-28,28H323.43Zm0-41.37h28.92a7.29,7.29,0,0,0,7.28-7.28A23.77,23.77,0,0,0,335.88,55.7H323.43Z"/><path class="cls-2" d="M559.23,128.1H509.61V107.42h49.62a7.29,7.29,0,0,0,7.27-7.28v-3.2a5,5,0,0,0-5-5H534.86a25.47,25.47,0,0,1-25.44-25.44V61.07A26.09,26.09,0,0,1,535.47,35H582V55.7H535.47a5.37,5.37,0,0,0-5.36,5.37v5.39a4.75,4.75,0,0,0,4.75,4.75h26.61a25.75,25.75,0,0,1,25.72,25.73v3.2A28,28,0,0,1,559.23,128.1Z"/><polygon class="cls-2" points="380.32 35.01 380.32 55.7 406.18 55.7 406.18 128.1 426.87 128.1 426.87 55.7 452.73 55.7 452.73 35.01 380.32 35.01"/><rect class="cls-2" x="468.24" y="35.01" width="20.69" height="93.09"/></svg>