<svg id="CONTENT" xmlns="http://www.w3.org/2000/svg" viewBox="0 0 279.8 310.4"><defs><style>.cls-1{fill:#3cb7ae;}.cls-2{fill:#fff;}</style></defs><title>Optis-logo-04</title><path class="cls-1" d="M220.16,47.64,151.5,8c5.49,5.39,8.67,13.2,8.67,23.78,0,7.1-1,14-2,21.06s-2,14.21-2,21.32C156.11,83,172.26,99,172.26,99s-16.15,17.82-16.15,25.69c0,6.85,1,13.7,2,20.55a143.73,143.73,0,0,1,2,20.81c0,7.53-1.39,13.63-3.86,18.5l63.81-36.84a8.45,8.45,0,0,0,4.23-7.32l0-85.39A8.48,8.48,0,0,0,220.16,47.64Z"/><path class="cls-2" d="M142.66,164.75c0-6.09-1-11.93-1.77-18.27a114.77,114.77,0,0,1-2-19.29c0-10.79,1.1-21,12.09-27.43v-.23c-11.2-6.07-12.09-14.47-12.09-27.91,0-6.85,1-12.94,2-19.29.76-6.09,1.77-12.18,1.77-18,0-13.07-4.85-20.83-18.07-21.74L63.86,47.64A8.48,8.48,0,0,0,59.63,55v85.35a8.48,8.48,0,0,0,4.23,7.33l66.07,38.14C138.76,183.26,142.66,176.12,142.66,164.75Z"/><path class="cls-2" d="M37.57,305a31.87,31.87,0,1,1,31.86-31.86A31.9,31.9,0,0,1,37.57,305Zm0-49.56a17.7,17.7,0,1,0,17.7,17.7A17.73,17.73,0,0,0,37.57,255.42Z"/><path class="cls-2" d="M94.21,305H80.05V241.25h22.69a30.46,30.46,0,0,1,30.42,30.43A19.17,19.17,0,0,1,114,290.82H94.21Zm0-28.32H114a5,5,0,0,0,5-5,16.28,16.28,0,0,0-16.26-16.26H94.21Z"/><path class="cls-2" d="M255.63,305h-34V290.82h34a5,5,0,0,0,5-5v-2.19a3.45,3.45,0,0,0-3.44-3.45H239a17.43,17.43,0,0,1-17.41-17.41v-3.7a17.86,17.86,0,0,1,17.83-17.84h31.87v14.17H239.37a3.67,3.67,0,0,0-3.67,3.67v3.7A3.26,3.26,0,0,0,239,266h18.22a17.63,17.63,0,0,1,17.61,17.61v2.19A19.17,19.17,0,0,1,255.63,305Z"/><polygon class="cls-2" points="182.72 241.25 133.16 241.25 133.16 255.42 150.86 255.42 150.86 304.98 165.02 304.98 165.02 255.42 182.72 255.42 182.72 241.25"/><rect class="cls-2" x="193.35" y="241.25" width="14.16" height="63.73"/></svg>