<?xml version="1.0" standalone="no"?>
<!DOCTYPE svg PUBLIC "-//W3C//DTD SVG 20010904//EN" "http://www.w3.org/TR/2001/REC-SVG-20010904/DTD/svg10.dtd">
<svg version="1.0" xmlns="http://www.w3.org/2000/svg" width="500.000000pt" height="500.000000pt"
    viewBox="0 0 500.000000 500.000000" preserveAspectRatio="xMidYMid meet">
    <metadata>
        Created by potrace 1.14, written by Peter Selinger 2001-2017
    </metadata>
    <g transform="translate(0.000000,500.000000) scale(0.100000,-0.100000)" fill="#000000" stroke="none">
        <path d="M2759 4478 c70 -75 135 -239 148 -378 11 -104 5 -311 -11 -396 -2
-10 -7 -44 -10 -74 -4 -30 -8 -66 -11 -80 -6 -39 -13 -90 -20 -145 -4 -27 -8
-61 -11 -75 -9 -57 -18 -201 -18 -280 0 -95 13 -131 87 -230 48 -64 262 -279
329 -330 l47 -35 -123 -120 c-153 -151 -215 -221 -277 -313 -61 -91 -69 -123
-64 -241 5 -91 32 -329 50 -431 3 -14 7 -47 11 -75 3 -27 7 -60 9 -73 35 -217
18 -491 -40 -634 -13 -32 -21 -58 -18 -58 2 0 64 34 136 77 73 42 146 84 162
93 17 10 134 77 260 150 127 73 244 141 260 150 17 10 75 43 130 75 55 32 190
109 300 173 221 127 250 149 275 207 16 37 17 110 16 1062 l-1 1021 -30 42
c-27 38 -65 67 -130 100 -11 5 -29 16 -40 22 -29 19 -84 51 -135 80 -25 14
-117 67 -205 118 -88 51 -178 103 -200 115 -22 13 -118 68 -214 124 -95 56
-175 101 -176 101 -1 0 -75 43 -164 95 -90 52 -164 95 -165 95 -2 0 -41 22
-87 50 -46 27 -88 50 -92 50 -4 0 6 -15 22 -32z" />
        <path d="M1725 4203 c-203 -118 -507 -294 -675 -391 -375 -215 -371 -213 -401
-265 l-24 -42 -1 -1005 c0 -553 3 -1020 7 -1039 12 -54 58 -101 164 -163 55
-32 109 -63 120 -68 11 -6 35 -19 53 -30 18 -11 124 -73 235 -137 111 -64 256
-147 322 -186 66 -38 138 -79 160 -92 22 -12 90 -51 151 -87 61 -36 117 -68
125 -71 8 -4 21 -11 29 -17 8 -6 65 -39 125 -73 107 -62 112 -63 146 -51 134
46 224 169 246 337 12 91 6 289 -11 397 -2 14 -7 48 -11 75 -14 104 -16 120
-20 132 -2 6 -7 38 -10 70 -4 32 -11 87 -15 123 -5 35 -9 120 -8 188 1 226 52
377 163 487 34 33 68 65 76 70 23 17 101 52 144 65 39 13 39 13 15 23 -237 94
-337 208 -385 440 -25 122 -12 391 29 612 2 11 7 49 11 85 4 36 9 74 11 85 21
101 23 329 4 419 -40 192 -159 301 -351 320 l-54 5 -370 -216z" />
    </g>
</svg>